<?xml version="1.0" encoding="UTF-8" standalone="no"?>
<!DOCTYPE svg PUBLIC "-//W3C//DTD SVG 20010904//EN"
              "http://www.w3.org/TR/2001/REC-SVG-20010904/DTD/svg10.dtd">

<svg xmlns="http://www.w3.org/2000/svg"
     width="10.0694in" height="5.08333in"
     viewBox="0 0 725 366">
  <path id="RageTracks"
        fill="none" stroke="black" stroke-width="1"
        d="M 510.38,204.88
           C 508.75,202.50 506.00,196.38 503.34,189.32
             499.51,175.02 496.27,154.49 497.38,144.00
             493.75,148.38 490.32,141.17 487.63,141.75
             496.38,144.50 478.84,165.98 474.25,172.38
             474.70,171.38 454.23,167.83 449.13,179.25
             448.75,175.88 465.08,171.62 469.63,177.13
             469.70,176.67 449.55,191.18 449.00,194.33
             452.67,189.67 459.71,189.14 467.13,193.63
             462.13,188.63 475.00,178.45 476.25,179.00
             487.07,188.71 499.63,187.50 496.88,183.38
             494.38,189.00 477.11,174.21 478.25,173.63
             479.49,174.14 490.59,155.29 491.50,150.63
             493.75,179.38 505.59,201.65 510.38,204.88 Z
           M 32.00,54.00
           C 32.00,54.00 28.00,133.00 28.00,133.00
             28.00,133.00 60.00,115.00 60.00,115.00
             60.00,115.00 17.00,215.00 17.00,215.00
             17.00,215.00 5.00,196.00 5.00,196.00
             5.00,196.00 9.00,244.00 9.00,244.00
             9.00,244.00 48.00,199.00 48.00,199.00
             48.00,199.00 29.00,207.00 29.00,207.00
             29.00,207.00 74.00,104.00 74.00,104.00
             74.00,104.00 35.33,118.00 35.33,118.00
             35.33,118.00 53.00,45.00 53.00,45.00
             53.00,45.00 32.00,54.00 32.00,54.00 Z
           M 227.00,111.33
           C 218.33,119.00 205.42,181.67 253.00,149.00
             253.00,149.00 246.00,179.67 246.00,179.67
             233.67,169.00 200.33,166.33 172.04,186.93
             109.93,163.21 59.74,138.63 121.00,108.00
             264.00,41.67 219.35,-33.14 0.00,46.00
             0.00,46.00 2.00,93.00 2.00,93.00
             1.33,10.00 338.33,-10.00 120.33,102.00
             45.94,147.56 100.46,170.77 165.60,192.62
             137.60,211.66 139.00,224.67 143.00,241.00
             142.59,241.21 141.56,209.16 172.80,195.02
             224.21,212.04 279.45,228.69 282.00,255.00
             282.00,255.00 247.50,268.00 247.50,268.00
             251.64,266.32 286.00,256.00 295.00,260.00
             306.53,234.06 238.67,212.04 178.56,189.40
             199.67,172.67 241.33,167.00 253.67,198.67
             245.22,167.48 269.92,112.72 270.00,113.00
             262.18,115.64 268.91,101.27 262.36,112.36
             262.48,112.26 247.13,92.78 227.00,111.33 Z
           M 204.38,159.88
           C 202.75,157.50 200.00,151.38 197.34,144.32
             193.51,130.02 190.27,109.49 191.38,99.00
             187.75,103.38 184.32,96.17 181.63,96.75
             190.38,99.50 172.84,120.98 168.25,127.38
             168.70,126.38 148.23,122.83 143.13,134.25
             142.75,130.88 159.08,126.62 163.63,132.13
             163.70,131.67 143.55,146.18 143.00,149.33
             146.67,144.67 153.71,144.14 161.13,148.63
             156.13,143.63 169.00,133.45 170.25,134.00
             181.07,143.71 193.63,142.50 190.88,138.38
             188.38,144.00 171.11,129.21 172.25,128.63
             173.49,129.14 184.59,110.29 185.50,105.63
             187.75,134.38 199.59,156.65 204.38,159.88 Z
           M 242.00,109.82
           C 234.50,111.98 223.31,123.03 224.67,137.00
             226.67,152.82 240.67,153.33 252.00,139.67
             263.00,126.33 262.91,102.00 242.00,109.82 Z
           M 295.64,135.64
           C 297.64,140.55 292.93,155.59 288.36,158.73
             288.33,158.75 321.20,160.82 329.64,153.64
             329.64,153.64 323.00,168.50 323.00,168.50
             323.00,152.00 290.81,161.94 271.00,172.00
             280.64,162.21 305.50,128.50 278.00,113.50
             312.66,122.74 341.46,104.76 340.50,104.50
             340.50,104.50 339.50,127.00 339.50,127.00
             329.10,113.72 293.98,119.42 296.00,122.00
             290.00,138.36 318.20,130.83 318.73,129.27
             316.18,134.91 308.55,136.91 295.64,135.64 Z
           M 420.00,136.00
           C 420.00,136.00 421.27,189.09 421.27,189.09
             412.91,186.36 418.30,206.67 413.45,209.09
             406.91,213.27 408.73,205.27 402.00,204.67
             419.03,199.64 418.67,162.67 414.00,135.33
             411.82,124.73 416.91,138.91 420.00,136.00 Z
           M 425.42,156.75
           C 425.42,156.75 446.00,219.33 446.00,219.33
             446.00,219.33 443.00,221.67 443.00,221.67
             443.00,221.67 453.33,230.67 453.33,230.67
             453.33,230.67 453.67,215.67 453.67,215.67
             453.67,215.67 451.00,220.00 451.00,220.00
             451.00,220.00 428.75,162.00 428.75,162.00
             483.75,178.00 438.87,82.10 398.00,131.82
             417.27,129.09 403.82,143.45 410.91,143.45
             405.82,140.91 418.39,130.02 407.48,129.48
             434.00,93.25 473.50,175.00 425.42,156.75 Z
           M 542.67,162.33
           C 547.67,155.67 557.44,159.97 559.00,162.33
             575.67,136.00 507.81,101.87 504.67,166.00
             506.87,218.33 548.14,208.66 548.67,209.00
             458.00,195.50 566.00,96.00 542.67,162.33 Z
           M 568.90,267.35
           C 565.27,268.67 576.86,255.66 573.33,257.00
             534.50,271.74 488.05,302.11 489.00,313.33
             502.03,296.41 534.02,281.15 569.84,269.83
             654.35,243.13 762.95,228.19 710.00,207.00
             649.45,189.75 629.88,153.88 648.76,146.87
             660.00,143.00 682.00,132.00 696.00,163.00
             689.65,155.60 696.43,140.59 702.00,142.00
             579.48,101.86 648.08,193.83 699.09,210.55
             732.00,221.50 642.46,240.79 568.90,267.35 Z
           M 560.50,123.00
           C 571.15,119.24 594.15,116.15 579.00,121.50
             571.11,125.47 578.50,182.50 578.50,182.50
             580.27,177.98 604.50,141.25 615.00,138.50
             601.28,145.04 580.00,184.00 581.50,192.00
             609.16,195.27 613.95,223.64 612.50,223.50
             605.75,218.00 593.82,235.93 588.25,241.50
             595.02,233.73 596.75,231.75 598.50,223.00
             599.47,224.28 604.34,191.82 579.00,197.50
             574.34,199.00 566.78,220.15 568.50,225.00
             568.37,225.46 577.95,227.17 578.00,227.00
             566.50,229.00 561.75,224.50 550.00,229.50
             586.98,220.13 571.50,120.25 560.50,123.00 Z
           M 428.00,57.33
           C 361.33,92.00 357.33,341.33 365.33,366.00
             341.66,341.16 296.90,294.13 276.67,321.33
             281.79,319.97 353.33,85.33 408.00,53.33
             408.00,53.33 428.00,57.33 428.00,57.33 Z
           M 314.00,293.75
           C 313.01,293.43 329.95,249.78 332.67,250.67
             334.01,248.79 342.92,250.32 342.67,250.67
             336.18,255.64 326.01,291.97 333.50,309.25
             332.09,300.22 319.15,286.19 314.00,293.75 Z
           M 336.25,216.00
           C 333.33,209.79 350.58,169.47 353.33,167.33
             353.14,166.72 361.93,167.10 362.00,167.33
             358.19,170.77 344.83,212.17 348.00,217.33
             348.09,216.41 336.44,214.18 336.25,216.00 Z
           M 365.25,128.00
           C 363.34,126.37 374.98,106.37 375.33,106.67
             375.33,106.67 379.33,106.67 379.33,106.67
             377.84,106.88 369.05,131.42 370.25,131.25
             370.51,131.11 365.97,127.61 365.25,128.00 Z
           M 389.33,82.00
           C 387.67,80.51 400.32,67.09 400.50,67.25
             400.50,67.25 402.00,70.50 402.00,70.50
             401.66,69.82 391.65,84.63 392.67,86.67
             392.92,86.30 389.84,81.26 389.33,82.00 Z
           M 342.00,39.50
           C 355.00,27.50 394.67,31.94 332.00,0.00
             442.49,46.15 486.00,19.00 653.00,73.00
             653.34,72.78 433.50,17.00 342.00,39.50 Z" />
</svg>
